<?xml version="1.0" encoding="UTF-8"?>
<svg width="90px" height="90px" viewBox="0 0 90 90" version="1.1" xmlns="http://www.w3.org/2000/svg" xmlns:xlink="http://www.w3.org/1999/xlink">
    <!-- Generator: Sketch 59.1 (86144) - https://sketch.com -->
    <title>icon_eligible</title>
    <desc>Created with Sketch.</desc>
    <defs>
        <circle id="path-1" cx="41" cy="41" r="41"></circle>
    </defs>
    <g id="icon_eligible" stroke="none" stroke-width="1" fill="none" fill-rule="evenodd">
        <g id="Group-2" transform="translate(4.000000, 4.000000)">
            <g id="Group-42">
                <mask id="mask-2" fill="white">
                    <use xlink:href="#path-1"></use>
                </mask>
                <use id="Mask" stroke="#572888" stroke-width="1.9" xlink:href="#path-1"></use>
                <g mask="url(#mask-2)" id="Group-40">
                    <g transform="translate(9.000000, 13.000000)">
                        <g>
                            <polygon id="Fill-5" fill-opacity="0.2" fill="#572888" points="0.494031603 28.9530156 35.5919604 22.815534 43.8224009 69.1052368 8.72447208 75.2427184"></polygon>
                            <polygon id="Fill-6" fill-opacity="0.2" fill="#572888" points="25.4098276 35.4368932 60.8616472 39.1345546 55.9061112 85.9223301 20.4542916 82.2246688"></polygon>
                            <path d="M16.3059279,20.8737864 C14.2850834,20.8737864 12.1780862,22.815534 12.1780862,25.3432838 L12.1780862,94.0741919 C12.1780862,95.9414256 13.9631062,98.5436893 16.7927635,98.5436893 L48.9444358,98.5436893 C50.6705749,98.5436893 53.0722774,96.2147239 53.0722774,94.5596288 L53.0722774,24.8578469 C53.0722774,23.1569843 51.2227067,20.8737864 48.9444358,20.8737864 L16.3059279,20.8737864 Z M16.5349897,100 C13.3272246,100 10.7175794,97.4070438 10.7175794,94.2197929 L10.7175794,25.1976829 C10.7175794,22.0104319 13.3272246,19.4174757 16.5349897,19.4174757 L48.715374,19.4174757 C51.923139,19.4174757 54.5327843,22.0104319 54.5327843,25.1976829 L54.5327843,94.2197929 C54.5327843,97.4070438 51.923139,100 48.715374,100 L16.5349897,100 Z" id="Fill-7" fill="#572888"></path>
                            <g id="Group" transform="translate(21.847778, 26.315789)">
                                <polygon id="Fill-9" fill="#572888" points="0.238428408 30.1535856 22.3246353 30.1535856 22.3246353 0.153585595 0.238428408 0.153585595"></polygon>
                                <path d="M2.84062668,9.6548356 L8.67933358,9.6548356 L8.67933358,3.81023033 L2.84062668,3.81023033 L2.84062668,9.6548356 Z" id="Path" stroke="#FFFFFF" stroke-width="0.9975"></path>
                                <polygon id="Fill-16" fill="#FFFFFF" points="10.7556698 5.41674349 19.1694629 5.41674349 19.1694629 4.8904277 10.7556698 4.8904277"></polygon>
                                <polygon id="Fill-17" fill="#FFFFFF" points="10.7556698 9.10095402 19.1694629 9.10095402 19.1694629 8.57463823 10.7556698 8.57463823"></polygon>
                                <polygon id="Fill-18" fill="#FFFFFF" points="2.34187668 15.4167435 19.695325 15.4167435 19.695325 14.8904277 2.34187668 14.8904277"></polygon>
                                <polygon id="Fill-19" fill="#FFFFFF" points="2.34187668 19.6272698 19.695325 19.6272698 19.695325 19.100954 2.34187668 19.100954"></polygon>
                                <polygon id="Fill-20" fill="#FFFFFF" points="2.34187668 23.8377961 19.695325 23.8377961 19.695325 23.3114803 2.34187668 23.3114803"></polygon>
                            </g>
                            <path d="M33.4399714,0.447733369 C33.3783348,0.385481995 33.3101719,0.335017862 33.2391086,0.290815703 C32.8239679,-0.0963215446 32.181497,-0.100373409 31.7663564,0.299287783 L26.6334777,5.24587779 C26.2002087,5.6635882 26.0184725,5.91298457 26.4296249,6.35316441 C26.6424524,6.58117389 27.1988026,6.55502094 27.4080045,6.35316441 L31.7663564,1.97233244 L31.7663564,14.9187837 C31.7663564,15.531352 31.886729,16.0194175 32.4893174,16.0194175 C33.0919059,16.0194175 33.0938122,15.5232482 33.0938122,14.91068 L33.0938122,1.97233244 L37.385439,6.35316441 C37.5964537,6.56643983 38.1000261,6.74810579 38.3114034,6.53225191 C38.7330703,6.10238591 38.5721249,5.63964536 38.1486452,5.21125276 L33.4399714,0.447733369 Z" id="Fill-38" fill="#572888"></path>
                        </g>
                    </g>
                </g>
            </g>
        </g>
    </g>
</svg>